HIERARCHY
ROOT Hips
{
    OFFSET 0.000000 0.000000 0.000000
    CHANNELS 6 Xposition Yposition Zposition Zrotation Yrotation Xrotation
    JOINT LeftUpLeg
    {
        OFFSET 7.693656 -10.129610 4.737288
        CHANNELS 3 Zrotation Yrotation Xrotation
        JOINT LeftLeg
        {
            OFFSET 13.818113 -37.964970 0.000000
            CHANNELS 3 Zrotation Yrotation Xrotation
            JOINT LeftFoot
            {
                OFFSET 14.462082 -39.734261 0.000000
                CHANNELS 3 Zrotation Yrotation Xrotation
                JOINT LeftToeBase
                {
                    OFFSET 0.889783 -2.444646 13.109402
                    CHANNELS 3 Zrotation Yrotation Xrotation
                    End Site
                    {
                        OFFSET 0.000000 0.000000 0.000000
                    }
                }
            }
        }
    }
    JOINT RightUpLeg
    {
        OFFSET -7.368877 -10.129610 4.737288
        CHANNELS 3 Zrotation Yrotation Xrotation
        JOINT RightLeg
        {
            OFFSET -14.351057 -39.429237 0.000000
            CHANNELS 3 Zrotation Yrotation Xrotation
            JOINT RightFoot
            {
                OFFSET -14.496286 -39.828186 0.000000
                CHANNELS 3 Zrotation Yrotation Xrotation
                JOINT RightToeBase
                {
                    OFFSET -0.929802 -2.554599 13.338564
                    CHANNELS 3 Zrotation Yrotation Xrotation
                    End Site
                    {
                        OFFSET 0.000000 0.000000 0.000000
                    }
                }
            }
        }
    }
    JOINT Spine
    {
        OFFSET 0.159567 11.489684 -1.091514
        CHANNELS 3 Zrotation Yrotation Xrotation
        JOINT Spine1
        {
            OFFSET 0.320150 11.564529 -0.241298
            CHANNELS 3 Zrotation Yrotation Xrotation
            JOINT Neck1
            {
                OFFSET -0.305757 9.856478 0.970950
                CHANNELS 3 Zrotation Yrotation Xrotation
                JOINT Head
                {
                    OFFSET 0.587413 9.941821 -0.699736
                    CHANNELS 3 Zrotation Yrotation Xrotation
                    End Site
                    {
                        OFFSET 0.000000 0.000000 0.000000
                    }
                }
            }
            JOINT LeftShoulder
            {
                OFFSET 0.000000 0.000000 0.000000
                CHANNELS 3 Zrotation Yrotation Xrotation
                JOINT LeftArm
                {
                    OFFSET 18.978788 6.778303 -1.756594
                    CHANNELS 3 Zrotation Yrotation Xrotation
                    JOINT LeftForeArm
                    {
                        OFFSET 28.126045 -0.000000 -0.000000
                        CHANNELS 3 Zrotation Yrotation Xrotation
                        JOINT LeftHand
                        {
                            OFFSET 19.662607 -0.000000 -0.000000
                            CHANNELS 3 Zrotation Yrotation Xrotation
                            End Site
                            {
                                OFFSET 0.000000 0.000000 0.000000
                            }
                        }
                    }
                }
            }
            JOINT RightShoulder
            {
                OFFSET 0.000000 0.000000 0.000000
                CHANNELS 3 Zrotation Yrotation Xrotation
                JOINT RightArm
                {
                    OFFSET -17.704226 7.755688 -2.284007
                    CHANNELS 3 Zrotation Yrotation Xrotation
                    JOINT RightForeArm
                    {
                        OFFSET -29.587381 -0.000000 -0.000000
                        CHANNELS 3 Zrotation Yrotation Xrotation
                        JOINT RightHand
                        {
                            OFFSET -19.440273 -0.000000 -0.000000
                            CHANNELS 3 Zrotation Yrotation Xrotation
                            End Site
                            {
                                OFFSET 0.000000 0.000000 0.000000
                            }
                        }
                    }
                }
            }
        }
    }
}
MOTION
Frames: 6
Frame Time: 0.016667
153.961227 94.537262 26.031448 -137.771698 -88.189651 155.327621 -15.434155 10.964486 0.819231 -1.344900 0.123552 13.280678 1.065676 7.413534 -2.839569 0.552899 0.000000 -70.299217 16.783487 5.332998 -37.004955 2.858723 0.305585 8.104852 -0.637748 -4.858467 8.257248 -2.454200 -0.000000 -36.913116 5.110038 -6.950946 -7.257094 -7.511940 -3.841355 1.209312 5.280837 -9.305188 -6.587010 0.000000 0.000000 0.000000 -7.686860 4.493405 1.824572 -60.585670 -12.755432 14.144814 -3.058666 -38.716579 -0.010944 5.387118 1.429629 0.064676 19.185055 -8.011826 1.051422 64.148537 -7.007563 -10.839299 4.185507 14.296013 0.008936 0.518835 4.038394 0.014538 
152.283096 94.847130 25.615873 -125.162483 -87.808311 142.481049 -14.436326 10.894434 0.024822 -0.965924 0.488041 16.719713 1.108458 7.975603 0.280962 1.016200 0.000001 -74.867142 17.379925 5.932916 -35.990437 2.844329 0.166222 9.190888 -0.698092 -5.142062 8.069900 -2.512501 -0.000000 -35.314621 6.057995 -6.857664 -7.240469 -7.451595 -3.828610 1.178874 5.137137 -8.947098 -6.564282 0.000000 0.000000 0.000000 -7.868083 4.777403 1.778618 -61.680504 -11.735898 13.558442 -3.043172 -37.185837 -0.010622 5.581654 1.436267 0.067481 18.994593 -7.630413 1.040717 63.895859 -6.527909 -11.426345 4.237757 13.298872 0.009205 0.287403 4.136230 0.006436 
150.636871 95.188179 25.158606 -118.880608 -87.351295 135.920685 -13.522080 10.975888 -1.268337 -0.571096 0.861484 20.847017 1.189625 8.439710 3.868409 1.527900 -0.000001 -77.069397 18.017424 6.478749 -34.765987 2.866347 0.080867 10.060645 -0.745160 -5.248765 7.278699 -2.451200 0.000000 -33.480999 6.805744 -6.749657 -7.149357 -7.400041 -3.799615 1.144875 5.056870 -8.536447 -6.508699 0.000000 0.000000 0.000000 -7.819565 5.026414 1.739990 -62.852623 -10.613477 12.898759 -3.015365 -35.550259 -0.010367 5.763999 1.539830 0.075078 18.866415 -7.196280 1.029604 63.763527 -5.846481 -11.836489 4.276849 12.255229 0.009432 0.065550 4.236150 -0.001765 
149.027786 95.541374 24.664560 -114.565735 -86.980530 131.317322 -12.748479 11.018413 -3.009676 -0.178925 1.198738 25.527292 1.340834 8.958916 7.586318 2.063200 0.000000 -75.645515 18.680889 6.793572 -33.311172 2.921474 0.066176 10.487521 -0.787409 -5.273632 6.142293 -2.327100 0.000000 -31.626314 7.336311 -6.677081 -7.036983 -7.359671 -3.780140 1.116007 5.031789 -8.125362 -6.420478 0.000000 0.000000 0.000000 -7.597080 5.191455 1.713675 -63.993561 -9.409518 12.327918 -2.982598 -33.920406 -0.010040 5.847329 1.747602 0.087178 18.811317 -6.773297 1.017396 63.751270 -4.979287 -12.004622 4.298077 11.266932 0.009497 -0.168662 4.288033 -0.010765 
147.458252 95.890549 24.153286 -110.277794 -86.738297 126.755104 -12.161618 10.893724 -5.126643 0.172448 1.472702 30.577925 1.564480 9.716499 10.839204 2.622799 0.000000 -70.159309 19.359335 6.778114 -31.654024 3.008218 0.127194 10.342507 -0.824133 -5.273899 4.960000 -2.190600 -0.000000 -30.016920 7.686517 -6.641376 -6.940430 -7.334195 -3.773050 1.089212 5.036831 -7.726778 -6.300282 0.000000 0.000000 0.000000 -7.297334 5.259786 1.703663 -65.007004 -8.155765 12.009451 -2.951743 -32.409607 -0.009529 5.756455 2.042756 0.101091 18.821598 -6.370545 1.004097 63.836029 -3.979271 -12.011681 4.308673 10.395900 0.009642 -0.332002 4.388743 -0.017362 
145.929443 96.224129 23.642958 -105.634697 -86.618233 121.868401 -11.805035 10.570134 -7.555440 0.451746 1.691010 35.787308 1.831672 10.871745 13.026274 3.228101 -0.000000 -61.699203 20.016846 6.428524 -29.888123 3.117215 0.250311 9.672111 -0.844836 -5.233877 3.935686 -2.060001 0.000000 -28.834600 7.886692 -6.610996 -6.871768 -7.319677 -3.764022 1.067971 5.049325 -7.396357 -6.173975 0.000000 0.000000 0.000000 -7.013465 5.242449 1.704322 -65.832634 -6.893385 12.044787 -2.926809 -31.109865 -0.008788 5.460842 2.377736 0.112423 18.880363 -6.029060 1.000381 64.009903 -2.844308 -11.677611 4.295991 9.824892 0.009144 -0.553792 4.219959 -0.024859 
